<svg xmlns="http://www.w3.org/2000/svg" viewBox="0 0 1279.11 480">
	<defs>
		<clipPath id="a">
			<path d="M0 0h1279.11v480H0z" />
		</clipPath>
	</defs>
	<g clip-path="url(#a)">
		<g data-name="Group 2">
			<path
				d="M95.684 254.698c0-21.8-9.494-26.028-19.344-26.028v-11.258c15.126 0 28.14-5.277 34.818-13.363h10.9v131.55c0 15.83 5.625 22.864 21.456 22.864v11.962H73.873v-11.962c16.179 0 21.8-6.685 21.8-22.864v-80.9Zm11.962-114.667c10.9 0 18.64 8.093 18.64 18.64a19 19 0 0 1-19.344 18.995c-9.85 0-18.291-8.093-18.291-18.995s9.142-18.64 18.995-18.64Z"
				data-name="Path 18" />
			<path
				d="M207.883 246.604c19.7-31.654 43.26-42.911 66.479-42.911 43.26 0 55.577 35.523 55.577 71.4v60.143c0 19.7 9.494 23.212 21.8 23.212v11.962h-70.341v-11.606c13.014 0 21.8-3.869 21.8-23.568v-56.977c0-40.451-19.344-50.649-40.451-50.649s-47.837 18.294-52.054 52.406v55.221c0 19.344 10.554 23.212 22.16 23.212v11.962h-70.7v-11.962c13.014 0 22.16-4.224 22.16-23.212v-81.954c0-21.8-7.033-30.246-23.568-31.305v-9.494l39.043-8.441 8.093 42.563Z"
				data-name="Path 19" />
		</g>
		<g data-name="Group 3">
			<path
				d="M452.625 370.418h-71.4v-11.606c12.659 0 21.8-4.573 21.8-23.568v-81.953c0-21.8-7.034-30.246-23.568-31.305v-9.494l39.042-8.441 8.093 43.26c10.553-20.4 30.95-43.26 66.479-42.911v31.305a63.96 63.96 0 0 0-15.126-1.757c-22.864 0-43.26 12.31-48.188 40.451v60.847c0 18.64 9.494 23.212 22.864 23.212Z"
				data-name="Path 20" />
			<path
				d="M587.702 374.99c-52.057 0-81.954-35.522-81.954-86.171s35.522-86.178 81.6-86.178c42.911 0 71.052 27.436 72.808 71.4l-10.9 11.258H531.072c3.165 34.114 28.14 67.532 66.124 67.532 24.272 0 40.1-12.666 49.6-32.358l14.422 8.093c-13.37 27.785-35.878 46.431-73.512 46.431Zm-56.274-106.923h97.784c-.355-23.212-17.587-47.484-49.241-47.484-21.456 0-44.668 15.475-48.537 47.484Z"
				data-name="Path 21" />
			<path
				d="M808.239 341.929c-10.9 17.936-30.6 30.6-56.629 30.6-38.339 0-71.4-26.377-71.4-81.6s34.47-86.526 77.381-86.526c24.62 0 42.207 11.961 52.057 21.456l12.661-17.237h11.962v126.622c0 16.534 5.981 23.212 21.456 23.212v11.962h-47.488v-28.489Zm-47.833 9.494c26.377 0 43.964-18.995 47.833-45.023v-60.145c-12.666-16.534-29.193-22.508-48.536-22.508-31.654 0-50.649 27.785-50.649 66.124 0 35.522 16.883 61.551 51.353 61.551Z"
				data-name="Path 22" />
			<path
				d="m1007.327 320.474 14.422 8.093c-13.37 27.785-36.227 46.431-73.868 46.431-49.945 0-81.6-35.522-81.6-86.171s37.634-85.118 84.066-85.118c28.845 0 46.431 7.737 60.5 16.534l-1.408 38.687h-10.9c-7.389-21.8-26.384-35.878-54.873-35.878-33.417 0-49.241 27.081-49.241 57.682 0 36.931 24.62 71.4 62.959 71.4 24.272 0 40.45-11.961 49.945-31.654Z"
				data-name="Path 23" />
			<path
				d="M1032.302 358.461c16.179 0 21.8-6.685 21.8-23.212V174.152c0-30.6-9.494-34.47-21.456-33.766v-9.145l47.129-12.31v123.108c18.995-28.14 41.859-38.339 63.663-38.339 43.26 0 55.577 35.522 55.577 71.4v60.143c0 16.534 5.277 23.212 21.1 23.212v11.961h-69.636v-11.955c16.179 0 21.8-6.685 21.8-23.212v-56.988c0-40.451-19.344-50.649-40.45-50.649s-47.833 18.291-52.057 52.405v55.577c0 15.83 5.625 22.864 21.456 22.864v11.962h-68.94v-11.959Z"
				data-name="Path 24" />
		</g>
		<path fill="#00d56c"
			d="M288.272 83.838c-64.286 0-114.66 50.434-118.723 113.815l28.06-6.269c7.322-41.738 44.178-80.445 87.894-81.29 51.976-1.006 83.482 35.04 92.621 84.783l26.511-5.92c-8.424-58.882-55.285-105.126-116.353-105.126Z"
			data-name="Path 25" />
	</g>
</svg>