<svg height="44" viewBox="0 0 218 44" width="216" xmlns="http://www.w3.org/2000/svg" xmlns:xlink="http://www.w3.org/1999/xlink"><clipPath id="a"><path d="m1.011719.246094h32.988281v43.753906h-32.988281zm0 0"/></clipPath><path d="m162.6875 15.734375v27.585937h-8.855469v-31.902343zm0 0" fill="#f37368"/><path d="m37.355469 38.199219 6.644531 5.800781 27.980469-14.625-2.890625-6.972656zm116.476562-17.773438 22.507813-11.722656-3.8125-6.605469-18.695313 9.320313zm0 0" fill="#f7a199"/><path d="m90.488281 13.578125v29.742187h-8.484375v-42.394531zm-53.132812 24.621094 6.644531 5.800781 12.789062-32.089844-4.121093-10.984375zm0 0" fill="#f37368"/><path d="m52.667969.925781h8.734375l16.171875 42.394531h-8.976563zm39.113281 0 18.632812 28.941407v13.453124l-28.410156-42.394531zm34.621094 0h8.796875v42.394531h-8.796875zm27.429687 7.777344h-13.53125v-7.777344h31.546875l4.492188 7.777344zm0 0" fill="#f04939"/><path d="m202.351562 27.214844v16.105468h-8.730468v-16.105468" fill="#f7a199"/><path d="m208.378906.925781-14.757812 26.289063h8.730468l15.3125-26.289063zm0 0" fill="#f04939"/><path d="m193.621094 27.214844-15.253906-26.289063h9.59375l10.269531 18.019531zm0 0" fill="#f37368"/><path d="m4.578125 5.863281c0 5.863281 3.628906 9.378907 10.886719 11.230469l7.6875 1.789062c6.886718 1.605469 11.066406 5.554688 11.066406 11.972657.0625 2.777343-.859375 5.492187-2.519531 7.714843 0-6.417968-3.320313-9.875-11.253907-11.972656l-7.5625-1.726562c-6.089843-1.359375-10.765624-4.628906-10.765624-11.601563 0-2.65625.863281-5.308593 2.460937-7.40625" fill="#f04939"/><path d="m110.414062 27.707031v-26.78125h8.488282v42.394531h-8.488282zm0 0" fill="#f37368"/><g clip-path="url(#a)"><path d="m26.964844 29.25c3.257812 2.097656 4.734375 5.0625 4.734375 9.320312-2.769531 3.515626-7.503907 5.429688-13.097657 5.429688-9.410156 0-16.113281-4.691406-17.527343-12.773438h9.039062c1.167969 3.703126 4.242188 5.429688 8.425781 5.429688 4.980469.0625 8.363282-2.652344 8.425782-7.40625m-17.652344-14.6875c-3.074219-1.851562-4.855469-5.183594-4.734375-8.761719 2.644531-3.457031 7.195313-5.554687 12.730469-5.554687 9.65625 0 15.191406 5.121094 16.605468 12.28125h-8.734374c-.984376-2.839844-3.382813-5.058594-7.746094-5.058594-4.738282.058594-7.933594 2.773438-8.121094 7.09375" fill="#f37368"/></g></svg>
